<?xml version="1.0" encoding="UTF-8"?>
<svg width="24" height="24" xmlns="http://www.w3.org/2000/svg">
    <g>
        <title>Layer 1</title>
        <path fill="#ffffff" id="svg_1" d="m22.713,4.077a2.993,2.993 0 0 0 -2.303,-1.077l-16.168,0l-0.042,-0.351a3,3 0 0 0 -2.978,-2.649l-0.222,0a1,1 0 0 0 0,2l0.222,0a1,1 0 0 1 0.993,0.883l1.376,11.7a5,5 0 0 0 4.966,4.417l10.443,0a1,1 0 0 0 0,-2l-10.443,0a3,3 0 0 1 -2.82,-2l11.92,0a5,5 0 0 0 4.921,-4.113l0.785,-4.354a2.994,2.994 0 0 0 -0.65,-2.456z"/>
        <circle fill="#ffffff" id="svg_2" r="2" cy="22" cx="7"/>
        <circle fill="#ffffff" id="svg_3" r="2" cy="22" cx="17"/>
    </g>
</svg>
